<?xml version="1.0" encoding="UTF-8"?>
<svg id="Layer_2" data-name="Layer 2" xmlns="http://www.w3.org/2000/svg" viewBox="0 0 644.47 138.07">
  <defs>
    <style>
      .cls-1 {
        fill: #141414;
      }
    </style>
  </defs>
  <g id="Layer_1-2" data-name="Layer 1">
    <g>
      <path class="cls-1" d="M0,126.71h0c4.56,4.23,9.5,8.04,14.78,11.36L47.94,0h-8.81L0,126.71Z"/>
      <path class="cls-1" d="M65.04,0c-1.59,38.88-3.17,77.76-4.76,116.64,1.12,0,7.74-.15,12.72-5.56,4.23-4.6,4.51-9.99,4.54-11.37L73.89,0h-8.86Z"/>
      <path class="cls-1" d="M99.96,0h-8.8c5.7,28.15,11.4,56.29,17.1,84.44,1.52-.51,6.58-2.42,10.01-7.8,3.9-6.13,2.88-12.38,2.61-13.78L99.96,0Z"/>
      <path class="cls-1" d="M210.35,59.47v16.7h29.44c-.88,3.13-2.15,6-3.81,8.64-1.66,2.64-3.69,4.98-6.08,7.03-2.39,2.05-5.25,3.64-8.57,4.76-3.32,1.12-7.08,1.68-11.28,1.68-6.35,0-12.04-1.46-17.06-4.39-5.03-2.93-9.01-7.05-11.94-12.38-2.93-5.32-4.39-11.5-4.39-18.53s1.49-13.28,4.47-18.45c2.98-5.17,7.01-9.15,12.08-11.94,5.08-2.78,10.69-4.17,16.84-4.17,6.54,0,12.08,1.39,16.62,4.17,4.54,2.78,8.08,6.42,10.62,10.91l17.87-10.4c-3.13-4.78-6.86-8.91-11.2-12.38-4.35-3.46-9.33-6.17-14.94-8.13-5.62-1.95-11.94-2.93-18.97-2.93-7.91,0-15.23,1.27-21.97,3.81-6.74,2.54-12.6,6.15-17.58,10.84-4.98,4.69-8.86,10.33-11.64,16.92-2.78,6.59-4.17,13.84-4.17,21.75s1.34,15.18,4.03,21.82c2.69,6.64,6.49,12.35,11.42,17.14,4.93,4.79,10.74,8.5,17.43,11.13,6.69,2.64,13.99,3.96,21.9,3.96,8.4,0,15.87-1.52,22.41-4.54,6.54-3.03,12.03-7.2,16.48-12.52,4.44-5.32,7.71-11.45,9.81-18.38,2.1-6.93,3-14.3,2.71-22.12h-50.53Z"/>
      <path class="cls-1" d="M328.18,49.8c-5.62-2.93-11.99-4.39-19.11-4.39s-13.5,1.46-19.11,4.39c-5.62,2.93-10.06,7.03-13.33,12.3-3.27,5.27-4.91,11.42-4.91,18.45s1.63,13.06,4.91,18.38c3.27,5.32,7.71,9.45,13.33,12.38,5.61,2.93,11.99,4.39,19.11,4.39s13.5-1.46,19.11-4.39c5.61-2.93,10.06-7.05,13.33-12.38,3.27-5.32,4.91-11.45,4.91-18.38s-1.64-13.18-4.91-18.45c-3.27-5.27-7.71-9.37-13.33-12.3ZM324.67,90.59c-1.61,2.88-3.79,5.13-6.52,6.74-2.73,1.61-5.76,2.42-9.08,2.42s-6.35-.81-9.08-2.42c-2.73-1.61-4.91-3.86-6.52-6.74-1.61-2.88-2.42-6.22-2.42-10.03s.81-7.18,2.42-10.11c1.61-2.93,3.78-5.17,6.52-6.74,2.73-1.56,5.76-2.34,9.08-2.34s6.35.78,9.08,2.34c2.73,1.56,4.91,3.81,6.52,6.74,1.61,2.93,2.42,6.3,2.42,10.11s-.8,7.15-2.42,10.03Z"/>
      <polygon class="cls-1" points="375.85 11.72 362.38 11.72 362.38 114.25 382.59 114.25 382.59 70.45 420.23 70.45 420.23 53.02 382.59 53.02 382.59 30.03 421.7 30.03 421.7 11.72 382.59 11.72 375.85 11.72"/>
      <path class="cls-1" d="M486.65,49.8c-5.62-2.93-11.99-4.39-19.11-4.39s-13.5,1.46-19.11,4.39c-5.62,2.93-10.06,7.03-13.33,12.3-3.27,5.27-4.91,11.42-4.91,18.45s1.63,13.06,4.91,18.38c3.27,5.32,7.71,9.45,13.33,12.38,5.61,2.93,11.99,4.39,19.11,4.39s13.5-1.46,19.11-4.39c5.61-2.93,10.06-7.05,13.33-12.38,3.27-5.32,4.91-11.45,4.91-18.38s-1.64-13.18-4.91-18.45c-3.27-5.27-7.71-9.37-13.33-12.3ZM483.14,90.59c-1.61,2.88-3.79,5.13-6.52,6.74-2.73,1.61-5.76,2.42-9.08,2.42s-6.35-.81-9.08-2.42c-2.73-1.61-4.91-3.86-6.52-6.74-1.61-2.88-2.42-6.22-2.42-10.03s.81-7.18,2.42-10.11c1.61-2.93,3.78-5.17,6.52-6.74,2.73-1.56,5.76-2.34,9.08-2.34s6.35.78,9.08,2.34c2.73,1.56,4.91,3.81,6.52,6.74,1.61,2.93,2.42,6.3,2.42,10.11s-.81,7.15-2.42,10.03Z"/>
      <path class="cls-1" d="M560.76,46.58c-2.2-.88-4.52-1.32-6.96-1.32-3.52,0-6.93,1.24-10.25,3.73-2.25,1.68-4.19,3.76-5.86,6.2v-8.33h-18.6v67.37h18.6v-35.74c0-3.22.41-5.98,1.25-8.28.83-2.29,2.07-4.08,3.73-5.35,1.66-1.27,3.66-1.9,6-1.9,1.95,0,3.59.32,4.91.95,1.32.64,2.61,1.54,3.88,2.71l8.64-16.11c-1.37-1.76-3.15-3.08-5.35-3.95Z"/>
      <polygon class="cls-1" points="612.54 74.7 641.54 46.87 618.84 46.87 594.08 70.63 594.08 46.87 575.78 46.87 575.78 94.25 594.08 94.25 594.08 79.94 621.91 114.25 644.47 114.25 612.54 74.7"/>
    </g>
  </g>
</svg>