<?xml version="1.0" encoding="UTF-8"?>
<svg id="Layer_2" data-name="Layer 2" xmlns="http://www.w3.org/2000/svg" viewBox="0 0 202.12 202.12">
  <defs>
    <style>
      .cls-1 {
        fill: #141414;
      }

      .cls-2 {
        fill: #fff;
      }
    </style>
  </defs>
  <g id="Layer_1-2" data-name="Layer 1">
    <g>
      <path class="cls-1" d="M202.12,101.06c0,55.82-45.24,101.06-101.06,101.06-19.65,0-37.99-5.61-53.51-15.32-5.28-3.3-10.23-7.07-14.8-11.27C12.62,157.07,0,130.54,0,101.06,0,45.25,45.25,0,101.06,0s101.06,45.25,101.06,101.06Z"/>
      <g>
        <path class="cls-2" d="M80.67,48.87l-33.12,137.93c-5.28-3.3-10.23-7.07-14.8-11.27l39.11-126.66h8.81Z"/>
        <path class="cls-2" d="M97.77,48.88c-1.59,38.88-3.17,77.76-4.76,116.64,1.12,0,7.74-.15,12.72-5.56,4.23-4.6,4.51-9.99,4.54-11.37l-3.65-99.71h-8.86Z"/>
        <path class="cls-2" d="M153.61,111.73l-20.92-62.85h-8.8c5.7,28.15,11.4,56.29,17.1,84.44,1.52-.51,6.58-2.42,10.01-7.8,3.9-6.13,2.88-12.38,2.61-13.78Z"/>
      </g>
    </g>
  </g>
</svg>